<?xml version="1.0" encoding="UTF-8"?>
<!DOCTYPE svg PUBLIC "-//W3C//DTD SVG 1.1//EN" "http://www.w3.org/Graphics/SVG/1.1/DTD/svg11.dtd">
<svg xmlns="http://www.w3.org/2000/svg" version="1.1" width="180px" height="180px" style="shape-rendering:geometricPrecision; text-rendering:geometricPrecision; image-rendering:optimizeQuality; fill-rule:evenodd; clip-rule:evenodd" xmlns:xlink="http://www.w3.org/1999/xlink">
<g><path style="opacity:0.986" fill="#ffaa55" d="M 73.5,-0.5 C 84.1667,-0.5 94.8333,-0.5 105.5,-0.5C 145.167,9.16667 169.833,33.8333 179.5,73.5C 179.5,84.1667 179.5,94.8333 179.5,105.5C 169.833,145.167 145.167,169.833 105.5,179.5C 94.8333,179.5 84.1667,179.5 73.5,179.5C 33.8333,169.833 9.16667,145.167 -0.5,105.5C -0.5,94.8333 -0.5,84.1667 -0.5,73.5C 9.16667,33.8333 33.8333,9.16667 73.5,-0.5 Z"/></g>
<g><path style="opacity:1" fill="#fffdfb" d="M 47.5,49.5 C 63.949,47.3576 76.949,52.8576 86.5,66C 86.3552,66.772 86.0219,67.4387 85.5,68C 82.3132,69.8657 79.1466,71.699 76,73.5C 66.6213,61.7949 55.1213,59.2949 41.5,66C 27.3033,79.0854 25.8033,93.5854 37,109.5C 46.1549,117.03 56.3216,118.53 67.5,114C 74.3121,109.691 77.9788,103.524 78.5,95.5C 69.8333,95.5 61.1667,95.5 52.5,95.5C 52.5,91.8333 52.5,88.1667 52.5,84.5C 66.1667,84.5 79.8333,84.5 93.5,84.5C 92.5196,117.99 75.5196,132.49 42.5,128C 30.203,123.035 22.0363,114.201 18,101.5C 13.1596,80.6736 19.6596,64.5069 37.5,53C 40.8502,51.5137 44.1835,50.347 47.5,49.5 Z"/></g>
<g><path style="opacity:1" fill="#fffdfb" d="M 121.5,50.5 C 125.884,50.1744 130.217,50.5078 134.5,51.5C 144.238,77.049 153.571,102.716 162.5,128.5C 157.786,128.827 153.12,128.493 148.5,127.5C 146.593,121.945 144.593,116.445 142.5,111C 132.833,110.333 123.167,110.333 113.5,111C 110.798,116.608 108.798,122.441 107.5,128.5C 102.833,128.5 98.1667,128.5 93.5,128.5C 102.235,102.296 111.568,76.2959 121.5,50.5 Z"/></g>
<g><path style="opacity:1" fill="#ffad5d" d="M 127.5,69.5 C 131.603,78.8045 134.936,88.4712 137.5,98.5C 130.8,98.83 124.134,98.4967 117.5,97.5C 121.417,88.3407 124.751,79.0074 127.5,69.5 Z"/></g>
</svg>
