<svg width="435" height="175" viewBox="0 0 435 175" fill="none" xmlns="http://www.w3.org/2000/svg">
<path d="M37.8 73.5C33.2 73.5 28.8 72.7 24.6 71.1C20.4667 69.4333 16.8 67.0333 13.6 63.9C10.4 60.7 7.86667 56.8667 6 52.4C4.2 47.8667 3.3 42.7 3.3 36.9C3.3 31.9 4.23334 27.2667 6.1 23C7.96667 18.7333 10.5333 15 13.8 11.8C17.1333 8.53333 21 6 25.4 4.2C29.8 2.4 34.5667 1.5 39.7 1.5C46.1 1.5 51.9 2.9 57.1 5.7C62.3 8.43333 66.1667 12.2 68.7 17L54.2 28.1C52.8 25.3 50.7 23.0667 47.9 21.4C45.1 19.6667 42.1333 18.8 39 18.8C36.6667 18.8 34.5333 19.2667 32.6 20.2C30.6667 21.1333 28.9667 22.4333 27.5 24.1C26.1 25.7667 25 27.7667 24.2 30.1C23.4667 32.3667 23.1 34.8667 23.1 37.6C23.1 40.4 23.5 42.9333 24.3 45.2C25.1 47.4667 26.2 49.4333 27.6 51.1C29.0667 52.7 30.8 53.9667 32.8 54.9C34.8 55.7667 37.0333 56.2 39.5 56.2C42.6333 56.2 45.6333 55.4333 48.5 53.9C51.3667 52.3 53.9667 50.0667 56.3 47.2V66.2C50.9667 71.0667 44.8 73.5 37.8 73.5ZM55.3 49.2H42.2V35.2H71.4V73H55.3V49.2Z" fill="white"/>
<path d="M105.626 74C100.959 74 96.8258 73.2667 93.2258 71.8C89.6258 70.3333 86.5924 68.3333 84.1258 65.8C81.7258 63.2 79.8924 60.2667 78.6258 57C77.4258 53.7333 76.8258 50.3 76.8258 46.7C76.8258 43.1 77.4258 39.6667 78.6258 36.4C79.8924 33.0667 81.7258 30.1333 84.1258 27.6C86.5924 25.0667 89.6258 23.0667 93.2258 21.6C96.8258 20.1333 100.959 19.4 105.626 19.4C110.359 19.4 114.492 20.1333 118.026 21.6C121.626 23.0667 124.626 25.0667 127.026 27.6C129.492 30.1333 131.326 33.0667 132.526 36.4C133.792 39.6667 134.426 43.1 134.426 46.7C134.426 50.3 133.792 53.7333 132.526 57C131.326 60.2667 129.492 63.2 127.026 65.8C124.626 68.3333 121.626 70.3333 118.026 71.8C114.492 73.2667 110.359 74 105.626 74ZM96.3258 46.7C96.3258 49.0333 96.7258 51.0667 97.5258 52.8C98.3258 54.4667 99.4258 55.7667 100.826 56.7C102.226 57.5667 103.826 58 105.626 58C107.426 58 109.026 57.5667 110.426 56.7C111.826 55.7667 112.926 54.4667 113.726 52.8C114.526 51.0667 114.926 49.0333 114.926 46.7C114.926 44.3667 114.526 42.3667 113.726 40.7C112.926 38.9667 111.826 37.6667 110.426 36.8C109.026 35.8667 107.426 35.4 105.626 35.4C103.826 35.4 102.226 35.8667 100.826 36.8C99.4258 37.6667 98.3258 38.9667 97.5258 40.7C96.7258 42.3667 96.3258 44.3667 96.3258 46.7Z" fill="white"/>
<path d="M194.052 73H175.052V43.4C175.052 40.8 174.452 38.9333 173.252 37.8C172.118 36.6 170.785 36 169.252 36C168.185 36 167.052 36.3333 165.852 37C164.652 37.6 163.552 38.4667 162.552 39.6C161.552 40.7333 160.752 42.0333 160.152 43.5V73H141.152V20.4H158.252V28.2C159.518 26.2667 161.118 24.6667 163.052 23.4C164.985 22.0667 167.218 21.0667 169.752 20.4C172.285 19.7333 175.052 19.4 178.052 19.4C181.652 19.4 184.518 20.0333 186.652 21.3C188.785 22.5667 190.385 24.2 191.452 26.2C192.518 28.2 193.218 30.3 193.552 32.5C193.885 34.6333 194.052 36.6 194.052 38.4V73Z" fill="white"/>
<path d="M200.661 61.8L224.661 33.4H202.161V20.4H244.461V31.6L220.561 60H245.361V73H200.661V61.8Z" fill="white"/>
<path d="M249.775 57.1C249.775 53.5667 250.742 50.4667 252.675 47.8C254.608 45.0667 257.275 42.9333 260.675 41.4C264.142 39.8667 268.075 39.1 272.475 39.1C274.542 39.1 276.475 39.2667 278.275 39.6C280.142 39.9333 281.742 40.4333 283.075 41.1V39.5C283.075 37.0333 282.342 35.2 280.875 34C279.475 32.8 277.175 32.2 273.975 32.2C271.042 32.2 268.275 32.7 265.675 33.7C263.142 34.6333 260.475 36.0333 257.675 37.9L252.175 26.1C255.708 23.8333 259.408 22.1667 263.275 21.1C267.208 19.9667 271.408 19.4 275.875 19.4C284.208 19.4 290.642 21.3 295.175 25.1C299.775 28.8333 302.075 34.4 302.075 41.8V52C302.075 53.8 302.342 55.0667 302.875 55.8C303.408 56.4667 304.342 56.8667 305.675 57V73C304.142 73.3333 302.675 73.5667 301.275 73.7C299.942 73.9 298.742 74 297.675 74C294.275 74 291.675 73.4 289.875 72.2C288.142 70.9333 287.008 69.1 286.475 66.7L286.075 64.8C283.742 67.8 281.042 70.1 277.975 71.7C274.908 73.2333 271.642 74 268.175 74C264.708 74 261.575 73.2667 258.775 71.8C255.975 70.3333 253.775 68.3333 252.175 65.8C250.575 63.2 249.775 60.3 249.775 57.1ZM280.575 58.4C281.308 57.8667 281.908 57.3 282.375 56.7C282.842 56.0333 283.075 55.3667 283.075 54.7V50.8C282.008 50.4 280.775 50.0667 279.375 49.8C278.042 49.5333 276.842 49.4 275.775 49.4C273.508 49.4 271.575 49.9667 269.975 51.1C268.442 52.2333 267.675 53.6667 267.675 55.4C267.675 56.3333 267.942 57.2 268.475 58C269.008 58.7333 269.742 59.3333 270.675 59.8C271.608 60.2 272.675 60.4 273.875 60.4C275.008 60.4 276.175 60.2333 277.375 59.9C278.642 59.5 279.708 59 280.575 58.4Z" fill="white"/>
<path d="M312.138 0H331.138V52.1C331.138 54.0333 331.538 55.5333 332.338 56.6C333.205 57.6 334.438 58.1 336.038 58.1C336.838 58.1 337.705 57.9667 338.638 57.7C339.572 57.4333 340.438 57.0667 341.238 56.6L343.638 70.6C341.372 71.6667 338.805 72.5 335.938 73.1C333.138 73.7 330.472 74 327.938 74C322.872 74 318.972 72.7 316.238 70.1C313.505 67.4333 312.138 63.6667 312.138 58.8V0Z" fill="white"/>
<path d="M373.985 74C369.319 74 365.185 73.2667 361.585 71.8C357.985 70.3333 354.952 68.3333 352.485 65.8C350.085 63.2 348.252 60.2667 346.985 57C345.785 53.7333 345.185 50.3 345.185 46.7C345.185 43.1 345.785 39.6667 346.985 36.4C348.252 33.0667 350.085 30.1333 352.485 27.6C354.952 25.0667 357.985 23.0667 361.585 21.6C365.185 20.1333 369.319 19.4 373.985 19.4C378.719 19.4 382.852 20.1333 386.385 21.6C389.985 23.0667 392.985 25.0667 395.385 27.6C397.852 30.1333 399.685 33.0667 400.885 36.4C402.152 39.6667 402.785 43.1 402.785 46.7C402.785 50.3 402.152 53.7333 400.885 57C399.685 60.2667 397.852 63.2 395.385 65.8C392.985 68.3333 389.985 70.3333 386.385 71.8C382.852 73.2667 378.719 74 373.985 74ZM364.685 46.7C364.685 49.0333 365.085 51.0667 365.885 52.8C366.685 54.4667 367.785 55.7667 369.185 56.7C370.585 57.5667 372.185 58 373.985 58C375.785 58 377.385 57.5667 378.785 56.7C380.185 55.7667 381.285 54.4667 382.085 52.8C382.885 51.0667 383.285 49.0333 383.285 46.7C383.285 44.3667 382.885 42.3667 382.085 40.7C381.285 38.9667 380.185 37.6667 378.785 36.8C377.385 35.8667 375.785 35.4 373.985 35.4C372.185 35.4 370.585 35.8667 369.185 36.8C367.785 37.6667 366.685 38.9667 365.885 40.7C365.085 42.3667 364.685 44.3667 364.685 46.7Z" fill="white"/>
<path d="M23.5 81H45.3L67.9 152H48.1L43.8 138.1H24.9L20.7 152H0.800003L23.5 81ZM40.7 125.1L34.4 100.1L27.8 125.1H40.7Z" fill="#E79E22"/>
<path d="M91.2344 152C87.8344 152 84.701 151.333 81.8344 150C79.0344 148.667 76.6344 146.8 74.6344 144.4C72.6344 142 71.0677 139.2 69.9344 136C68.8677 132.8 68.3344 129.333 68.3344 125.6C68.3344 121.667 68.9344 118.067 70.1344 114.8C71.3344 111.467 73.001 108.567 75.1344 106.1C77.3344 103.633 79.9344 101.733 82.9344 100.4C85.9344 99.0667 89.2344 98.4 92.8344 98.4C96.5677 98.4 99.8677 99.1667 102.734 100.7C105.668 102.167 107.968 104.333 109.634 107.2V99.4H126.134V147.2C126.134 152.667 124.801 157.433 122.134 161.5C119.468 165.567 115.734 168.7 110.934 170.9C106.134 173.167 100.534 174.3 94.1344 174.3C88.601 174.3 83.7344 173.433 79.5344 171.7C75.401 169.967 71.7344 167.467 68.5344 164.2L78.5344 153.8C80.4677 155.6 82.7677 157.1 85.4344 158.3C88.1677 159.567 91.0677 160.2 94.1344 160.2C96.4677 160.2 98.601 159.767 100.534 158.9C102.534 158.033 104.134 156.633 105.334 154.7C106.534 152.833 107.134 150.333 107.134 147.2V143.8C105.668 146.533 103.468 148.6 100.534 150C97.6677 151.333 94.5677 152 91.2344 152ZM98.0344 137C98.9677 137 99.8344 136.9 100.634 136.7C101.501 136.433 102.301 136.1 103.034 135.7C103.768 135.233 104.468 134.667 105.134 134C105.868 133.267 106.534 132.467 107.134 131.6V122.2C106.534 120.6 105.701 119.233 104.634 118.1C103.568 116.9 102.401 116 101.134 115.4C99.8677 114.733 98.5677 114.4 97.2344 114.4C95.901 114.4 94.6344 114.7 93.4344 115.3C92.301 115.9 91.301 116.767 90.4344 117.9C89.5677 118.967 88.901 120.2 88.4344 121.6C87.9677 123 87.7344 124.5 87.7344 126.1C87.7344 127.7 87.9677 129.167 88.4344 130.5C88.9677 131.833 89.701 133 90.6344 134C91.5677 134.933 92.6677 135.667 93.9344 136.2C95.201 136.733 96.5677 137 98.0344 137Z" fill="#E79E22"/>
<path d="M161.68 153C157.014 153 152.88 152.267 149.28 150.8C145.68 149.333 142.647 147.333 140.18 144.8C137.78 142.2 135.947 139.267 134.68 136C133.48 132.733 132.88 129.3 132.88 125.7C132.88 122.1 133.48 118.667 134.68 115.4C135.947 112.067 137.78 109.133 140.18 106.6C142.647 104.067 145.68 102.067 149.28 100.6C152.88 99.1333 157.014 98.4 161.68 98.4C166.414 98.4 170.547 99.1333 174.08 100.6C177.68 102.067 180.68 104.067 183.08 106.6C185.547 109.133 187.38 112.067 188.58 115.4C189.847 118.667 190.48 122.1 190.48 125.7C190.48 129.3 189.847 132.733 188.58 136C187.38 139.267 185.547 142.2 183.08 144.8C180.68 147.333 177.68 149.333 174.08 150.8C170.547 152.267 166.414 153 161.68 153ZM152.38 125.7C152.38 128.033 152.78 130.067 153.58 131.8C154.38 133.467 155.48 134.767 156.88 135.7C158.28 136.567 159.88 137 161.68 137C163.48 137 165.08 136.567 166.48 135.7C167.88 134.767 168.98 133.467 169.78 131.8C170.58 130.067 170.98 128.033 170.98 125.7C170.98 123.367 170.58 121.367 169.78 119.7C168.98 117.967 167.88 116.667 166.48 115.8C165.08 114.867 163.48 114.4 161.68 114.4C159.88 114.4 158.28 114.867 156.88 115.8C155.48 116.667 154.38 117.967 153.58 119.7C152.78 121.367 152.38 123.367 152.38 125.7Z" fill="#E79E22"/>
<path d="M218.306 153C213.706 153 209.173 152.267 204.706 150.8C200.306 149.267 196.573 147.067 193.506 144.2L200.006 132.5C203.273 134.633 206.406 136.3 209.406 137.5C212.473 138.7 215.24 139.3 217.706 139.3C219.106 139.3 220.14 139.133 220.806 138.8C221.473 138.4 221.806 137.767 221.806 136.9C221.806 136.3 221.573 135.8 221.106 135.4C220.64 135 219.873 134.6 218.806 134.2C217.806 133.8 216.506 133.367 214.906 132.9C210.773 131.433 207.306 130.067 204.506 128.8C201.773 127.533 199.706 126 198.306 124.2C196.973 122.333 196.306 119.867 196.306 116.8C196.306 113.2 197.206 110.033 199.006 107.3C200.806 104.5 203.373 102.3 206.706 100.7C210.106 99.1 214.173 98.3 218.906 98.3C222.44 98.3 225.973 98.8667 229.506 100C233.106 101.067 236.573 103.033 239.906 105.9L232.706 117.5C229.373 115.433 226.54 113.967 224.206 113.1C221.94 112.233 219.906 111.8 218.106 111.8C217.24 111.8 216.473 111.9 215.806 112.1C215.206 112.3 214.74 112.6 214.406 113C214.073 113.4 213.906 113.933 213.906 114.6C213.906 115.267 214.14 115.833 214.606 116.3C215.073 116.7 215.806 117.1 216.806 117.5C217.806 117.833 219.073 118.233 220.606 118.7C225.14 120.033 228.84 121.4 231.706 122.8C234.573 124.133 236.673 125.767 238.006 127.7C239.406 129.633 240.106 132.167 240.106 135.3C240.106 140.833 238.14 145.167 234.206 148.3C230.34 151.433 225.04 153 218.306 153Z" fill="#E79E22"/>
<path d="M283.618 149.1C281.885 149.833 280.018 150.533 278.018 151.2C276.085 151.8 274.085 152.267 272.018 152.6C270.018 152.933 268.051 153.1 266.118 153.1C263.251 153.1 260.618 152.633 258.218 151.7C255.818 150.7 253.885 149.1 252.418 146.9C251.018 144.633 250.318 141.6 250.318 137.8V113.7H243.818V99.4H250.318V82.9H269.318V99.4H279.618V113.7H269.318V131.1C269.318 132.833 269.685 134.067 270.418 134.8C271.151 135.467 272.151 135.8 273.418 135.8C274.351 135.8 275.418 135.633 276.618 135.3C277.818 134.967 279.018 134.567 280.218 134.1L283.618 149.1Z" fill="#E79E22"/>
<path d="M289.003 152V99.4H308.003V152H289.003ZM289.003 95V79H308.003V95H289.003Z" fill="#E79E22"/>
<path d="M370.516 152H351.516V122.4C351.516 119.8 350.916 117.933 349.716 116.8C348.583 115.6 347.25 115 345.716 115C344.65 115 343.516 115.333 342.316 116C341.116 116.6 340.016 117.467 339.016 118.6C338.016 119.733 337.216 121.033 336.616 122.5V152H317.616V99.4H334.716V107.2C335.983 105.267 337.583 103.667 339.516 102.4C341.45 101.067 343.683 100.067 346.216 99.4C348.75 98.7333 351.516 98.4 354.516 98.4C358.116 98.4 360.983 99.0333 363.116 100.3C365.25 101.567 366.85 103.2 367.916 105.2C368.983 107.2 369.683 109.3 370.016 111.5C370.35 113.633 370.516 115.6 370.516 117.4V152Z" fill="#E79E22"/>
<path d="M405.626 153C400.959 153 396.826 152.267 393.226 150.8C389.626 149.333 386.592 147.333 384.126 144.8C381.726 142.2 379.892 139.267 378.626 136C377.426 132.733 376.826 129.3 376.826 125.7C376.826 122.1 377.426 118.667 378.626 115.4C379.892 112.067 381.726 109.133 384.126 106.6C386.592 104.067 389.626 102.067 393.226 100.6C396.826 99.1333 400.959 98.4 405.626 98.4C410.359 98.4 414.492 99.1333 418.026 100.6C421.626 102.067 424.626 104.067 427.026 106.6C429.492 109.133 431.326 112.067 432.526 115.4C433.792 118.667 434.426 122.1 434.426 125.7C434.426 129.3 433.792 132.733 432.526 136C431.326 139.267 429.492 142.2 427.026 144.8C424.626 147.333 421.626 149.333 418.026 150.8C414.492 152.267 410.359 153 405.626 153ZM396.326 125.7C396.326 128.033 396.726 130.067 397.526 131.8C398.326 133.467 399.426 134.767 400.826 135.7C402.226 136.567 403.826 137 405.626 137C407.426 137 409.026 136.567 410.426 135.7C411.826 134.767 412.926 133.467 413.726 131.8C414.526 130.067 414.926 128.033 414.926 125.7C414.926 123.367 414.526 121.367 413.726 119.7C412.926 117.967 411.826 116.667 410.426 115.8C409.026 114.867 407.426 114.4 405.626 114.4C403.826 114.4 402.226 114.867 400.826 115.8C399.426 116.667 398.326 117.967 397.526 119.7C396.726 121.367 396.326 123.367 396.326 125.7Z" fill="#E79E22"/>
</svg>
